<?xml version='1.0' encoding='utf-8'?>
<svg xmlns="http://www.w3.org/2000/svg" width="1200" height="900" preserveAspectRatio="xMinYMin meet" viewBox="0 0 1200 900" version="1.0" fill-rule="evenodd" role="img" aria-labelledby="chart-title chart-description">
	<title id="chart-title">공개 보고된 AI 사고·유해사례</title><desc id="chart-description">Stanford AI Index 2026 공개 CSV 기준 AIID 기록은 2023년168건, 2024년281건, 2025년362건입니다. 0에서 시작하는 막대그래프입니다. 2026년은 연간 집계 미완료로 비교에서 제외했습니다. 사이버 침해사고 전용 통계가 아니며 공식 요약의2024년233건과 원자료281건은 불일치합니다. 차이 원인은 확인하지 못했습니다.</desc><clipPath id="clip">
		<rect x="0" y="0" width="1200" height="900" />
	</clipPath>
	<g id="group" transform="scale(1,-1) translate(0,-900)" style="clip-path: url(#clip)">
		<g transform="">
			<rect x="0" y="0" width="1200" height="900" style="stroke: none; stroke-linecap: butt; stroke-width: 1; fill: rgb(98%,98%,99%); fill-rule: evenodd;" />
			<rect x="64" y="850" width="42" height="4" style="stroke: none; stroke-linecap: butt; stroke-width: 1; fill: rgb(3%,49%,54%); fill-rule: evenodd;" />
			<text x="120" y="846" style="font-family: Malgun Gothic, sans-serif; font-weight:700; font-size: 17px;fill: rgb(37%,44%,52%); stroke:none;" transform="translate(0,1692) scale(1,-1)">AI INCIDENT DATABASE / AI INDEX 2026</text>
			<text x="64" y="792" style="font-family: Malgun Gothic, sans-serif; font-weight:700; font-size: 42px;fill: rgb(8%,17%,26%); stroke:none;" transform="translate(0,1584) scale(1,-1)">공개 보고된 AI 사고·유해사례</text>
			<text x="64" y="748" style="font-family: Malgun Gothic, sans-serif; font-size: 23px;fill: rgb(37%,44%,52%); stroke:none;" transform="translate(0,1496) scale(1,-1)">AIID 사고 기록 · Stanford AI Index 2026 공개 원자료</text>
			<rect x="64" y="687" width="4" height="32" style="stroke: none; stroke-linecap: butt; stroke-width: 1; fill: rgb(72%,47%,8%); fill-rule: evenodd;" />
			<text x="82" y="695" style="font-family: Malgun Gothic, sans-serif; font-weight:700; font-size: 23px;fill: rgb(8%,17%,26%); stroke:none;" transform="translate(0,1390) scale(1,-1)">사이버 침해사고 전용 통계가 아닙니다</text>
			<g transform="">
				<path d="M 138,325 L 1136,325 Z" style="stroke: rgb(86%,89%,91%); stroke-linecap: butt; stroke-width: 0.7;" />
				<path d="M 138,403.75 L 1136,403.75 Z" style="stroke: rgb(86%,89%,91%); stroke-linecap: butt; stroke-width: 0.7;" />
				<path d="M 138,482.5 L 1136,482.5 Z" style="stroke: rgb(86%,89%,91%); stroke-linecap: butt; stroke-width: 0.7;" />
				<path d="M 138,561.25 L 1136,561.25 Z" style="stroke: rgb(86%,89%,91%); stroke-linecap: butt; stroke-width: 0.7;" />
				<path d="M 138,640 L 1136,640 Z" style="stroke: rgb(86%,89%,91%); stroke-linecap: butt; stroke-width: 0.7;" />
				<g transform="">
					<rect x="243.60846560846562" y="325.0" width="121.44973544973544" height="132.29999999999995" style="stroke: none; stroke-linecap: butt; stroke-width: 1; fill: rgb(3%,49%,54%); fill-rule: evenodd;" />
					<rect x="576.2751322751324" y="325.0" width="121.4497354497355" height="221.28750000000002" style="stroke: none; stroke-linecap: butt; stroke-width: 1; fill: rgb(3%,49%,54%); fill-rule: evenodd;" />
					<rect x="908.941798941799" y="325.0" width="121.44973544973539" height="285.07500000000005" style="stroke: none; stroke-linecap: butt; stroke-width: 1; fill: rgb(3%,49%,54%); fill-rule: evenodd;" />
					<g transform="">
						<g transform=" matrix(1,0,0,1,304.333333,487.3)">
							<rect x="-41.51416015625" y="-25.2" width="83.0283203125" height="50.4" style="stroke: none; stroke-linecap: butt; stroke-width: 0.5; fill: rgb(98%,98%,99%); fill-rule: evenodd;" />
							<text x="-36.51416015625" y="-16.8" style="font-family: Malgun Gothic, sans-serif; font-weight:700; font-size: 42px;fill: rgb(8%,17%,26%); stroke:none;" transform="translate(0,-33) scale(1,-1)">168</text>
						</g>
						<g transform=" matrix(1,0,0,1,637,576.2875)">
							<rect x="-41.51416015625" y="-25.2" width="83.0283203125" height="50.4" style="stroke: none; stroke-linecap: butt; stroke-width: 0.5; fill: rgb(98%,98%,99%); fill-rule: evenodd;" />
							<text x="-36.51416015625" y="-16.8" style="font-family: Malgun Gothic, sans-serif; font-weight:700; font-size: 42px;fill: rgb(8%,17%,26%); stroke:none;" transform="translate(0,-33) scale(1,-1)">281</text>
						</g>
						<g transform=" matrix(1,0,0,1,969.666667,640.075)">
							<rect x="-41.51416015625" y="-25.2" width="83.0283203125" height="50.4" style="stroke: none; stroke-linecap: butt; stroke-width: 0.5; fill: rgb(98%,98%,99%); fill-rule: evenodd;" />
							<text x="-36.51416015625" y="-16.8" style="font-family: Malgun Gothic, sans-serif; font-weight:700; font-size: 42px;fill: rgb(8%,17%,26%); stroke:none;" transform="translate(0,-33) scale(1,-1)">362</text>
						</g>
					</g>
				</g>
				<g transform="">
					<g transform="">
						<path d="M 138,325 L 1136,325 Z" style="stroke: rgb(8%,17%,26%); stroke-linecap: butt; stroke-width: 1.1;" />
					</g>
					<g transform="" />
					<g transform="">
						<g transform=" matrix(1,0,0,1,304.333333,307)">
							<text x="-30.138671875000004" y="-26.0" style="font-family: Malgun Gothic, sans-serif; font-weight:700; font-size: 26px;fill: rgb(8%,17%,26%); stroke:none;" transform="translate(0,-52) scale(1,-1)">2023</text>
						</g>
						<g transform=" matrix(1,0,0,1,637,307)">
							<text x="-30.138671875000004" y="-26.0" style="font-family: Malgun Gothic, sans-serif; font-weight:700; font-size: 26px;fill: rgb(8%,17%,26%); stroke:none;" transform="translate(0,-52) scale(1,-1)">2024</text>
						</g>
						<g transform=" matrix(1,0,0,1,969.666667,307)">
							<text x="-30.138671875000004" y="-26.0" style="font-family: Malgun Gothic, sans-serif; font-weight:700; font-size: 26px;fill: rgb(8%,17%,26%); stroke:none;" transform="translate(0,-52) scale(1,-1)">2025</text>
						</g>
					</g>
				</g>
				<g transform="">
					<g transform="" />
					<g transform="" />
					<g transform="">
						<g transform=" matrix(1,0,0,1,122,325)">
							<text x="-11.015625" y="-8.0" style="font-family: Malgun Gothic, sans-serif; font-size: 20px;fill: rgb(37%,44%,52%); stroke:none;" transform="translate(0,-16) scale(1,-1)">0</text>
						</g>
						<g transform=" matrix(1,0,0,1,122,403.75)">
							<text x="-33.046875" y="-8.0" style="font-family: Malgun Gothic, sans-serif; font-size: 20px;fill: rgb(37%,44%,52%); stroke:none;" transform="translate(0,-16) scale(1,-1)">100</text>
						</g>
						<g transform=" matrix(1,0,0,1,122,482.5)">
							<text x="-33.046875" y="-8.0" style="font-family: Malgun Gothic, sans-serif; font-size: 20px;fill: rgb(37%,44%,52%); stroke:none;" transform="translate(0,-16) scale(1,-1)">200</text>
						</g>
						<g transform=" matrix(1,0,0,1,122,561.25)">
							<text x="-33.046875" y="-8.0" style="font-family: Malgun Gothic, sans-serif; font-size: 20px;fill: rgb(37%,44%,52%); stroke:none;" transform="translate(0,-16) scale(1,-1)">300</text>
						</g>
						<g transform=" matrix(1,0,0,1,122,640)">
							<text x="-33.046875" y="-8.0" style="font-family: Malgun Gothic, sans-serif; font-size: 20px;fill: rgb(37%,44%,52%); stroke:none;" transform="translate(0,-16) scale(1,-1)">400</text>
						</g>
					</g>
				</g>
			</g>
			<text x="101.0" y="655" style="font-family: Malgun Gothic, sans-serif; font-size: 19px;fill: rgb(37%,44%,52%); stroke:none;" transform="translate(0,1310) scale(1,-1)">건</text>
			<rect x="64" y="185" width="1072" height="64" rx="8" ry="8" style="stroke: none; stroke-linecap: butt; stroke-width: 1; fill: rgb(92%,96%,96%); fill-rule: evenodd;" />
			<text x="86" y="206" style="font-family: Malgun Gothic, sans-serif; font-weight:700; font-size: 26px;fill: rgb(8%,17%,26%); stroke:none;" transform="translate(0,412) scale(1,-1)">2026</text>
			<path d="M 171,203 L 171,230 Z" style="stroke: rgb(71%,81%,83%); stroke-linecap: butt; stroke-width: 1;" />
			<text x="195" y="206" style="font-family: Malgun Gothic, sans-serif; font-size: 25px;fill: rgb(8%,17%,26%); stroke:none;" transform="translate(0,412) scale(1,-1)">연간 집계 미완료 / 비교 제외</text>
			<path d="M 64,158 L 1136,158 Z" style="stroke: rgb(86%,89%,91%); stroke-linecap: butt; stroke-width: 0.8;" />
			<text x="64" y="122" style="font-family: Malgun Gothic, sans-serif; font-size: 20px;fill: rgb(37%,44%,52%); stroke:none;" transform="translate(0,244) scale(1,-1)">출처: AI Index 2026, Figure 3.2.1 공개 CSV · 확인: 2026-09-27</text>
			<text x="64" y="89" style="font-family: Malgun Gothic, sans-serif; font-size: 20px;fill: rgb(37%,44%,52%); stroke:none;" transform="translate(0,178) scale(1,-1)">공개 보고 기반 기록으로, 과거 연도도 추가·수정될 수 있습니다.</text>
			<text x="64" y="56" style="font-family: Malgun Gothic, sans-serif; font-size: 20px;fill: rgb(37%,44%,52%); stroke:none;" transform="translate(0,112) scale(1,-1)">2024년 값은 공식 요약과 차이가 있어 동일 CSV를 사용했습니다. 본문 참조.</text>
		</g>
	</g>
</svg>